<svg width="16" height="18" viewBox="0 0 16 18" fill="none" xmlns="http://www.w3.org/2000/svg">
<path d="M4 4C4 3.20888 4.2346 2.43552 4.67412 1.77772C5.11365 1.11992 5.73836 0.607234 6.46927 0.304484C7.20017 0.00173312 8.00444 -0.0774802 8.78036 0.0768607C9.55628 0.231202 10.269 0.612164 10.8284 1.17157C11.3878 1.73098 11.7688 2.44372 11.9231 3.21964C12.0775 3.99556 11.9983 4.79983 11.6955 5.53074C11.3928 6.26164 10.8801 6.88635 10.2223 7.32588C9.56448 7.76541 8.79112 8 8 8C6.93913 8 5.92172 7.57857 5.17157 6.82843C4.42143 6.07828 4 5.06087 4 4ZM1 18H15C15.2652 18 15.5196 17.8946 15.7071 17.7071C15.8946 17.5196 16 17.2652 16 17V14C16 12.9391 15.5786 11.9217 14.8284 11.1716C14.0783 10.4214 13.0609 10 12 10H4C2.93913 10 1.92172 10.4214 1.17157 11.1716C0.421427 11.9217 0 12.9391 0 14V17C0 17.2652 0.105357 17.5196 0.292893 17.7071C0.48043 17.8946 0.734783 18 1 18Z" fill="#003E52"/>
</svg>
