<?xml version="1.0" encoding="iso-8859-1"?>
<!-- Generator: Adobe Illustrator 19.0.0, SVG Export Plug-In . SVG Version: 6.00 Build 0)  -->
<svg version="1.1" id="Layer_1" xmlns="http://www.w3.org/2000/svg" xmlns:xlink="http://www.w3.org/1999/xlink" x="0px" y="0px"
	 viewBox="0 0 512 512" style="enable-background:new 0 0 512 512;" xml:space="preserve">
<g>
	<g>
		<rect x="155.826" y="61.217" width="356.174" height="33.391"/>
	</g>
</g>
<g>
	<g>
		<rect x="155.826" y="239.304" width="356.174" height="33.391"/>
	</g>
</g>
<g>
	<g>
		<rect x="155.826" y="417.391" width="356.174" height="33.391"/>
	</g>
</g>
<g>
	<g>
		<polygon points="89.044,50.087 89.044,16.696 33.391,16.696 33.391,50.087 0,50.087 0,105.739 33.391,105.739 33.391,139.13 
			89.044,139.13 89.044,105.739 122.435,105.739 122.435,50.087 		"/>
	</g>
</g>
<g>
	<g>
		<polygon points="89.044,228.174 89.044,194.783 33.391,194.783 33.391,228.174 0,228.174 0,283.826 33.391,283.826 
			33.391,317.217 89.044,317.217 89.044,283.826 122.435,283.826 122.435,228.174 		"/>
	</g>
</g>
<g>
	<g>
		<polygon points="89.044,406.261 89.044,372.87 33.391,372.87 33.391,406.261 0,406.261 0,461.913 33.391,461.913 33.391,495.304 
			89.044,495.304 89.044,461.913 122.435,461.913 122.435,406.261 		"/>
	</g>
</g>
<g>
</g>
<g>
</g>
<g>
</g>
<g>
</g>
<g>
</g>
<g>
</g>
<g>
</g>
<g>
</g>
<g>
</g>
<g>
</g>
<g>
</g>
<g>
</g>
<g>
</g>
<g>
</g>
<g>
</g>
</svg>
