<?xml version="1.0" ?><svg width="28px" height="28px" viewBox="0 0 28 28" fill="none" xmlns="http://www.w3.org/2000/svg"><path clip-rule="evenodd" d="M2 4C1.44769 4 1 4.44772 1 5V24C1 24.5523 1.44769 25 2 25H26C26.5523 25 27 24.5523 27 24V5C27 4.44772 26.5523 4 26 4H2ZM3.29999 6C3.17328 6 3.06488 6.07857 3.02094 6.18965C3.06921 6.40542 3.19879 6.59735 3.38678 6.72265L13.7227 13.6133C13.8906 13.7252 14.1094 13.7252 14.2773 13.6133L24.6132 6.72265C24.8012 6.59735 24.9308 6.40542 24.9791 6.18965C24.9351 6.07857 24.8267 6 24.7 6H3.29999ZM25 22V8.86852L15.1094 15.4622C14.4376 15.9101 13.5624 15.9101 12.8906 15.4622L3 8.86852V22C3 22.5523 3.44769 23 4 23H24C24.5523 23 25 22.5523 25 22Z" fill="black" fill-rule="evenodd"/></svg>