<?xml version="1.0" ?><svg width="35px" height="35px" viewBox="0 0 35 35" data-name="Layer 2" id="a9400e57-0c5e-48de-8a8e-b6145fb92312" xmlns="http://www.w3.org/2000/svg"><path d="M16.377,33.6a16.809,16.809,0,0,1-2.348-.167A16.194,16.194,0,0,1,.336,19.184,16.1,16.1,0,0,1,16.351,1.4,16.149,16.149,0,0,1,32.125,14.257a16.026,16.026,0,0,1,.151,5.029c-.14,1.258-.355,2.952-.612,4.213l2.987,7.077A1.251,1.251,0,0,1,33.4,32.309l-9.176-.763A15.878,15.878,0,0,1,16.377,33.6ZM16.351,3.9a13.6,13.6,0,1,0,6.94,25.3,1.269,1.269,0,0,1,.745-.172l7.509.624-2.337-5.539a1.245,1.245,0,0,1-.067-.767c.269-1.165.5-3,.65-4.331a13.57,13.57,0,0,0-.115-4.251A13.64,13.64,0,0,0,16.351,3.9Z"/></svg>