<?xml version="1.0" encoding="iso-8859-1"?>
<!-- Generator: Adobe Illustrator 19.0.0, SVG Export Plug-In . SVG Version: 6.00 Build 0)  -->
<svg version="1.1" id="Layer_1" xmlns="http://www.w3.org/2000/svg" xmlns:xlink="http://www.w3.org/1999/xlink" x="0px" y="0px"
	 viewBox="0 0 512 512" style="enable-background:new 0 0 512 512;" xml:space="preserve">
<g>
	<g>
		<path d="M157.967,353.995c-4.344-4.33-10.333-6.813-16.462-6.813s-12.133,2.484-16.462,6.813
			c-4.329,4.344-6.811,10.332-6.811,16.46s2.482,12.119,6.811,16.462c4.344,4.329,10.333,6.811,16.462,6.811
			s12.117-2.482,16.462-6.811c4.329-4.344,6.811-10.333,6.811-16.462S162.296,358.339,157.967,353.995z"/>
	</g>
</g>
<g>
	<g>
		<path d="M488.688,0h-100.13c-6.173,0-12.093,2.451-16.457,6.817l-32.912,32.914c-4.364,4.364-6.816,10.283-6.816,16.457v31.581
			h-31.581c-12.853,0-23.273,10.42-23.273,23.273v31.581l-31.581-0.002c-0.002,0,0,0-0.002,0c-6.172,0-12.093,2.451-16.457,6.817
			l-35.443,35.443c-9.64-1.727-19.433-2.6-29.252-2.6c-44.029,0-85.416,17.138-116.534,48.257
			c-64.284,64.287-64.284,168.886,0,233.17C79.396,494.85,120.793,512,164.828,512c0.003,0,0.011,0,0.014,0
			c44.043-0.003,85.445-17.154,116.582-48.291c38.204-38.208,55.085-93.012,45.653-145.785L505.145,139.86
			c4.364-4.364,6.817-10.283,6.817-16.455V23.273C511.961,10.42,501.541,0,488.688,0z M465.416,113.763L285.148,294.031
			c-5.874,5.872-8.172,14.432-6.029,22.457c10.875,40.754-0.853,84.555-30.608,114.311c-22.346,22.346-52.061,34.655-83.672,34.658
			c-31.604,0.002-61.32-12.308-83.675-34.661c-46.136-46.136-46.136-121.208,0-167.345c22.328-22.328,52.025-34.622,83.62-34.622
			c10.37,0,20.694,1.351,30.689,4.018c8.024,2.141,16.583-0.158,22.455-6.031l37.648-37.648l45.214,0.002
			c6.172,0,12.093-2.451,16.457-6.816c4.364-4.364,6.816-10.283,6.816-16.457v-31.584h31.583c12.853,0,23.273-10.42,23.273-23.273
			V65.826l19.279-19.281h67.218V113.763z"/>
	</g>
</g>
<g>
</g>
<g>
</g>
<g>
</g>
<g>
</g>
<g>
</g>
<g>
</g>
<g>
</g>
<g>
</g>
<g>
</g>
<g>
</g>
<g>
</g>
<g>
</g>
<g>
</g>
<g>
</g>
<g>
</g>
</svg>
